# Blender v2.83 (sub 13) OBJ File: ''
# www.blender.org
mtllib luxcapacitor.mtl
o lightlens
v 0.285856 0.707035 0.231745
v 0.285856 0.277897 0.231745
v 0.714994 0.277897 0.231745
v 0.714994 0.707035 0.231745
vt 0.082000 0.089800
vt 0.363300 0.089800
vt 0.363300 0.386700
vt 0.082000 0.386700
vn 0.0000 -0.0000 1.0000
usemtl LensMaterial
s 1
f 1/1/1 2/2/1 3/3/1 4/4/1
o lightBase
v 0.714994 0.707035 0.231745
v 0.714994 0.707035 0.254277
v 0.285856 0.707035 0.254277
v 0.285856 0.707035 0.231745
v 0.285856 0.277897 0.254277
v 0.285856 0.277897 0.231745
v 0.714994 0.277897 0.254277
v 0.714994 0.277897 0.231745
v 0.142931 0.134972 0.254277
v 0.142931 0.849960 0.254277
v 0.142931 0.849960 0.170045
v 0.142931 0.134972 0.170045
v 0.857919 0.134972 0.254277
v 0.857919 0.134972 0.170045
v 0.857919 0.849960 0.254277
v 0.857919 0.849960 0.170045
v 0.903594 0.089297 0.170045
v 0.097256 0.089297 0.170045
v 0.097256 0.089297 -0.000630
v 0.903594 0.089297 -0.000630
v 0.903594 0.895635 0.170045
v 0.903594 0.895635 -0.000630
v 0.097256 0.895635 0.170045
v 0.097256 0.895635 -0.000630
vt 0.980500 0.003900
vt 0.996100 0.003900
vt 0.996100 0.253900
vt 0.980500 0.253900
vt 0.964800 0.253900
vt 0.964800 0.003900
vt 0.980500 0.003900
vt 0.996100 0.996100
vt 0.980500 0.996100
vt 0.980500 0.746100
vt 0.996100 0.746100
vt 0.980500 0.480500
vt 0.996100 0.480500
vt 0.996100 0.738300
vt 0.980500 0.738300
vt 0.957000 0.003900
vt 0.957000 0.425800
vt 0.910200 0.425800
vt 0.910200 0.003900
vt 0.957000 0.480500
vt 0.957000 0.902300
vt 0.910200 0.902300
vt 0.910200 0.480500
vt 0.863300 0.902300
vt 0.863300 0.480500
vt 0.910200 0.902300
vt 0.855500 0.480500
vt 0.855500 0.902300
vt 0.808600 0.902300
vt 0.808600 0.480500
vt 0.800800 0.480500
vt 0.800800 0.957000
vt 0.707000 0.957000
vt 0.707000 0.480500
vt 0.503900 0.957000
vt 0.503900 0.480500
vt 0.597700 0.480500
vt 0.597700 0.957000
vt 0.496100 0.480500
vt 0.496100 0.957000
vt 0.402300 0.957000
vt 0.402300 0.480500
vt 0.902300 0.003900
vt 0.902300 0.472700
vt 0.449200 0.472700
vt 0.449200 0.003900
vt 0.605500 0.957000
vt 0.605500 0.480500
vt 0.699200 0.480500
vt 0.699200 0.957000
vt 0.394500 0.902300
vt 0.003900 0.902300
vt 0.082000 0.824200
vt 0.324200 0.824200
vt 0.394500 0.480500
vt 0.324200 0.566400
vt 0.003900 0.480500
vt 0.082000 0.566400
vt 0.003900 0.472700
vt 0.003900 0.003900
vt 0.035200 0.035200
vt 0.035200 0.441400
vt 0.441400 0.472700
vt 0.410200 0.441400
vt 0.441400 0.003900
vt 0.410200 0.035200
vn 0.0000 -1.0000 0.0000
vn 1.0000 0.0000 0.0000
vn 0.0000 1.0000 0.0000
vn -1.0000 0.0000 0.0000
vn 0.0000 0.0000 -1.0000
vn 0.0000 -0.0000 1.0000
usemtl BaseMaterial
s 1
f 5/5/2 6/6/2 7/7/2 8/8/2
f 8/8/3 7/9/3 9/10/3 10/11/3
f 10/12/4 9/13/4 11/14/4 12/15/4
f 12/16/5 11/17/5 6/18/5 5/19/5
f 13/20/5 14/21/5 15/22/5 16/23/5
f 17/24/2 13/25/2 16/26/2 18/27/2
f 19/28/3 17/29/3 18/27/3 20/30/3
f 14/31/4 19/32/4 20/33/4 15/34/4
f 21/35/2 22/36/2 23/37/2 24/38/2
f 25/39/3 21/40/3 24/41/3 26/42/3
f 27/43/4 25/44/4 26/45/4 28/46/4
f 28/47/6 26/48/6 24/49/6 23/50/6
f 28/51/5 23/52/5 22/53/5 27/54/5
f 19/55/7 14/56/7 7/57/7 6/58/7
f 17/59/7 19/55/7 6/58/7 11/60/7
f 13/61/7 17/59/7 11/60/7 9/62/7
f 14/56/7 13/61/7 9/62/7 7/57/7
f 22/63/7 21/64/7 18/65/7 16/66/7
f 27/67/7 22/63/7 16/66/7 15/68/7
f 25/69/7 27/67/7 15/68/7 20/70/7
f 21/64/7 25/69/7 20/70/7 18/65/7
